<?xml version="1.0" standalone="no"?>
<!DOCTYPE svg PUBLIC "-//W3C//DTD SVG 20010904//EN"
 "http://www.w3.org/TR/2001/REC-SVG-20010904/DTD/svg10.dtd">
<svg version="1.0" xmlns="http://www.w3.org/2000/svg"
 width="1002.000000pt" height="1002.000000pt" viewBox="0 0 1002.000000 1002.000000"
 preserveAspectRatio="xMidYMid meet">
<metadata>
Created by potrace 1.14, written by Peter Selinger 2001-2017
</metadata>
<g transform="translate(0.000000,1002.000000) scale(0.100000,-0.100000)"
fill="#000000" stroke="none">
<path d="M8265 10002 c-2 -2 -56 -6 -122 -8 -65 -2 -131 -6 -148 -8 -16 -3
-57 -7 -90 -11 -63 -6 -73 -8 -170 -26 -33 -6 -69 -13 -80 -15 -58 -9 -303
-71 -317 -81 -5 -2 -16 -6 -25 -8 -10 -2 -37 -10 -60 -18 -22 -9 -44 -13 -47
-10 -3 4 -6 2 -6 -4 0 -6 -13 -13 -29 -16 -16 -4 -49 -15 -73 -25 -94 -41
-103 -45 -117 -48 -8 -1 -17 -6 -20 -11 -3 -4 -15 -10 -26 -11 -11 -2 -27 -10
-36 -18 -8 -8 -21 -14 -27 -14 -6 0 -34 -13 -62 -30 -28 -16 -55 -30 -61 -30
-5 0 -26 -11 -47 -23 -34 -22 -158 -97 -200 -122 -27 -16 -146 -98 -152 -104
-3 -4 -32 -26 -65 -51 -33 -24 -71 -54 -85 -66 -14 -12 -47 -41 -75 -64 -59
-50 -180 -167 -250 -242 -123 -131 -335 -402 -335 -428 0 -5 -4 -10 -10 -10
-5 0 -10 -6 -10 -14 0 -8 -3 -16 -8 -18 -10 -4 -98 -151 -94 -157 2 -2 -1 -7
-6 -10 -8 -5 -125 -226 -127 -241 -1 -3 -11 -25 -22 -50 -84 -178 -200 -553
-227 -730 -3 -19 -8 -46 -11 -60 -2 -13 -7 -40 -9 -60 -3 -19 -8 -54 -11 -76
-18 -134 -16 -145 25 -150 8 -2 33 -5 55 -8 66 -10 157 -19 202 -20 24 -1 43
-4 43 -8 0 -7 518 -3 565 5 17 3 57 8 90 11 33 3 70 8 81 10 12 2 37 7 55 10
50 8 91 16 119 21 14 3 36 7 49 10 42 8 184 45 251 66 36 11 73 22 82 24 9 2
25 8 36 14 10 5 30 12 43 15 21 4 141 51 194 76 69 32 137 60 144 60 5 0 11 3
13 8 2 4 35 23 73 42 91 45 223 124 337 203 50 34 101 69 114 78 13 9 37 27
52 40 15 13 50 42 77 64 85 68 95 77 214 195 110 108 188 192 238 257 12 15
36 44 53 63 16 19 30 38 30 42 0 4 6 13 13 20 7 7 28 36 47 63 19 28 40 56 46
63 7 6 16 21 19 32 3 11 10 20 14 20 4 0 16 18 26 40 10 22 21 40 26 40 4 0
12 12 18 28 6 15 24 50 41 77 17 28 38 66 46 85 9 19 23 43 32 53 8 9 12 17 9
17 -4 0 8 28 25 63 18 34 33 67 34 72 1 6 12 33 24 60 42 98 67 163 75 195 3
14 10 34 15 45 11 23 40 121 46 150 2 11 15 63 29 115 14 52 26 107 27 123 1
15 5 27 9 27 3 0 6 8 6 18 -1 9 4 53 11 97 6 44 14 103 17 130 3 28 8 62 11
76 5 25 3 26 -68 38 -40 7 -89 14 -108 16 -19 2 -35 4 -35 5 0 3 -72 8 -215
15 -196 10 -211 10 -215 7z"/>
<path d="M3978 6035 c-2 -2 -43 -5 -93 -9 -49 -3 -101 -8 -115 -10 -14 -2 -47
-7 -75 -11 -27 -3 -84 -13 -125 -21 -41 -9 -84 -17 -95 -18 -11 -2 -27 -6 -35
-9 -8 -3 -62 -17 -120 -32 -100 -26 -186 -55 -330 -112 -72 -29 -352 -163
-360 -173 -3 -3 -27 -19 -55 -35 -71 -40 -199 -127 -203 -137 -2 -4 -8 -8 -14
-8 -5 0 -16 -6 -23 -12 -21 -19 -37 -31 -73 -57 -19 -13 -44 -33 -56 -45 -12
-11 -48 -43 -80 -71 -62 -53 -226 -217 -273 -274 -15 -18 -38 -44 -50 -57 -13
-13 -23 -26 -23 -29 0 -3 -12 -18 -26 -35 -70 -78 -224 -316 -291 -450 -16
-30 -31 -56 -35 -58 -5 -2 -8 -8 -8 -14 0 -6 -13 -38 -29 -72 -44 -92 -71
-157 -71 -172 0 -8 -4 -14 -8 -14 -5 0 -9 -6 -9 -12 -1 -7 -15 -53 -33 -103
-18 -49 -33 -97 -35 -105 -2 -8 -11 -42 -20 -75 -9 -33 -18 -68 -20 -78 -2
-10 -6 -26 -9 -35 -3 -9 -8 -35 -12 -57 -3 -22 -7 -42 -9 -45 -2 -3 -6 -26
-10 -50 -3 -25 -10 -72 -15 -105 -5 -33 -12 -87 -16 -120 -3 -33 -8 -64 -12
-69 -3 -5 0 -6 6 -2 9 5 9 1 3 -17 -15 -39 -5 -488 13 -582 3 -16 9 -57 12
-90 4 -33 8 -63 10 -66 2 -4 6 -24 10 -45 3 -22 10 -57 16 -79 5 -22 12 -47
14 -55 2 -8 8 -33 14 -55 6 -22 13 -53 16 -70 3 -16 11 -36 16 -42 6 -7 8 -13
5 -13 -4 0 5 -30 20 -67 14 -38 26 -72 28 -78 4 -20 24 -69 73 -185 49 -116
179 -353 249 -452 18 -26 33 -52 33 -58 0 -5 4 -10 8 -10 4 0 16 -14 26 -31
10 -18 26 -39 35 -49 28 -30 51 -60 45 -60 -3 0 5 -10 18 -22 13 -13 45 -49
71 -80 82 -97 302 -311 372 -360 5 -4 22 -18 37 -30 36 -31 62 -51 80 -63 9
-5 60 -40 115 -76 126 -85 212 -134 348 -201 152 -75 415 -176 505 -194 14 -2
36 -9 50 -14 24 -8 149 -36 207 -46 15 -2 51 -9 78 -14 131 -24 276 -35 495
-34 179 0 241 3 355 19 22 2 58 7 80 10 22 3 51 7 65 10 14 3 39 7 57 10 18 2
49 8 70 14 21 6 49 12 63 15 14 3 59 15 100 26 41 12 80 22 85 23 6 2 16 6 23
10 6 5 12 6 12 2 0 -3 13 1 29 9 16 9 31 12 35 9 3 -4 6 -2 6 3 0 5 9 10 20
11 10 1 34 8 52 16 18 8 74 32 123 52 105 44 280 134 380 195 99 61 189 122
193 132 2 4 8 8 13 8 6 0 15 4 22 10 7 5 32 26 57 46 119 95 137 111 263 231
57 54 199 209 210 229 4 8 23 31 42 51 19 21 35 41 35 44 0 3 9 16 20 29 11
13 41 55 67 94 27 39 51 73 56 74 4 2 7 7 7 12 0 4 18 37 40 71 66 108 225
440 244 514 2 6 5 17 8 25 42 114 109 362 122 450 3 19 7 44 10 55 10 50 21
139 32 255 13 150 6 523 -12 611 -2 13 -7 44 -10 69 -5 46 -7 55 -19 125 -6
32 -39 173 -60 255 -12 47 -56 182 -73 226 -12 29 -18 55 -15 58 4 3 1 6 -5 6
-7 0 -12 7 -12 15 0 8 -4 23 -9 33 -6 9 -22 44 -37 77 -52 118 -89 191 -131
263 -24 40 -43 77 -43 82 0 6 -4 10 -10 10 -5 0 -10 7 -10 15 0 8 -4 15 -9 15
-5 0 -14 14 -21 30 -7 17 -16 30 -21 30 -5 0 -9 5 -9 12 0 12 -79 121 -92 126
-4 2 -8 10 -8 17 0 8 -11 22 -25 33 -14 11 -25 24 -25 29 0 30 -343 375 -466
468 -21 16 -44 34 -51 40 -7 5 -18 15 -25 21 -34 28 -229 154 -238 154 -5 0
-10 5 -10 10 0 6 -6 10 -14 10 -8 0 -16 3 -18 8 -11 26 -417 214 -558 259
-164 52 -257 77 -320 88 -19 3 -51 10 -70 15 -20 5 -51 12 -70 14 -19 3 -66 9
-105 14 -38 6 -77 10 -85 10 -8 1 -33 4 -55 7 -37 6 -412 14 -417 10z"/>
</g>
</svg>
