<?xml version="1.0" encoding="UTF-8"?>
<svg width="394px" height="53px" viewBox="0 0 394 53" version="1.1" xmlns="http://www.w3.org/2000/svg" xmlns:xlink="http://www.w3.org/1999/xlink">
    <g id="Page-1" stroke="none" stroke-width="1" fill="none" fill-rule="evenodd" opacity="0.9" stroke-linecap="round" stroke-linejoin="round">
        <path d="M3.381,35.159 C13.007,36.645 23.37,36.642 31.866,31.879 C40.362,27.116 46.089,16.408 42.566,7.327 C41.609,4.859 39.436,2.356 36.823,2.776 C35.758182,3.01528 34.7812306,3.54687178 34.002,4.311 C24.419,12.686 29.207,30.279 40.584,35.982 C51.961,41.685 66.121,37.882 76.494,30.512 C80.481,27.677 84.294,24.048 85.46,19.295 C86.626,14.542 84.01,8.639 79.185,7.828 C76.7087189,7.5490449 74.2196217,8.22893054 72.229,9.728 C64.154,15.259 63.242,27.869 68.807,35.921 C74.372,43.973 84.666,47.721 94.454,47.706 C106.444,47.685 118.769,42.152 125.096,31.967 C127.669,27.826 129.208,22.756 127.98,18.038 C126.752,13.32 122.148,9.329 117.313,9.957 C107.774,21.376 113.396,41.186 126.948,47.329 C140.5,53.472 157.98,46.155 164.694,32.876 C166.606,29.095 167.776,24.729 166.801,20.605 C165.826,16.481 162.258,12.795 158.021,12.712 C154.344,16.133 154.895,22.471 157.991,26.426 C161.087,30.381 165.991,32.438 170.779,33.943 C179.797,36.776 190.116,38.093 198.308,33.377 C206.5,28.661 210.194,15.918 203.238,9.518 C202.291787,8.55189611 201.04949,7.9302196 199.709,7.752 C195.875,7.469 193.903,12.169 193.1,15.929 C191.2,24.799 190,35.758 197.161,41.329 C199.764977,43.1441755 202.759168,44.3218471 205.902,44.767 C217.008,46.92 229.753,45.307 237.452,37.017 C245.151,28.727 244.269,12.817 233.966,8.147 C227.639,14.424 228.137,25.508 233.466,32.652 C238.795,39.796 247.766,43.426 256.615,44.512 C268.685,45.995 282.787,42.044 287.935,31.027 C289.163,28.399 289.785,25.266 288.593,22.621 C286.469,17.908 279.047,17.459 275.567,21.281 C272.087,25.103 272.487,31.42 275.512,35.613 C278.537,39.806 283.585,42.124 288.653,43.143 C306.891,46.811 326.806,33.413 330.281,15.143 C331.134,10.656 330.49,4.971 326.321,3.106 C320.621,0.557 315.187,7.722 314.485,13.927 C313.086646,26.2820427 319.504041,38.2073086 330.585677,43.8464399 C341.667314,49.4855712 355.085212,47.6539245 364.25,39.251 C368.458,35.393 371.629,29.461 369.789,24.057 C367.949,18.653 359.203,16.488 356.509,21.521 C353.889,26.421 359.001,31.975 364.068,34.247 C372.49047,37.9810036 382.00358,38.4360466 390.744,35.523" id="Tracé_685" stroke="#F1C2D9" stroke-width="5"></path>
    </g>
</svg>