<?xml version="1.0" encoding="UTF-8"?>
<svg width="210px" height="53px" viewBox="0 0 210 53" version="1.1" xmlns="http://www.w3.org/2000/svg" xmlns:xlink="http://www.w3.org/1999/xlink">
    <title>Tracé_685</title>
    <g id="Page-1" stroke="none" stroke-width="1" fill="none" fill-rule="evenodd" stroke-linecap="round" stroke-linejoin="round">
        <path d="M3.381,35.159 C13.007,36.645 23.37,36.642 31.866,31.879 C40.362,27.116 46.089,16.408 42.566,7.327 C41.609,4.859 39.436,2.356 36.823,2.776 C35.758182,3.01528 34.7812306,3.54687178 34.002,4.311 C24.419,12.686 29.207,30.279 40.584,35.982 C51.961,41.685 66.121,37.882 76.494,30.512 C80.481,27.677 84.294,24.048 85.46,19.295 C86.626,14.542 84.01,8.639 79.185,7.828 C76.7087189,7.5490449 74.2196217,8.22893054 72.229,9.728 C64.154,15.259 63.242,27.869 68.807,35.921 C74.372,43.973 84.666,47.721 94.454,47.706 C106.444,47.685 118.769,42.152 125.096,31.967 C127.669,27.826 129.208,22.756 127.98,18.038 C126.752,13.32 122.148,9.329 117.313,9.957 C107.774,21.376 113.396,41.186 126.948,47.329 C140.5,53.472 157.98,46.155 164.694,32.876 C166.606,29.095 167.776,24.729 166.801,20.605 C165.826,16.481 162.258,12.795 158.021,12.712 C154.344,16.133 154.895,22.471 157.991,26.426 C161.087,30.381 165.991,32.438 170.779,33.943 C179.797,36.776 190.116,38.093 198.308,33.377 C206.5,28.661 210.194,15.918 203.238,9.518 C202.291787,8.55189611 201.04949,7.9302196 199.709,7.752 C195.875,7.469 193.903,12.169 193.1,15.929 C191.2,24.799 190,35.758 197.161,41.329 C199.764977,43.1441755 202.759168,44.3218471 205.902,44.767" id="Tracé_685" stroke="#F1C2D9" stroke-width="5"></path>
    </g>
</svg>