<svg width="833px" height="832px" viewBox="0 0 833 832" version="1.1" xmlns="http://www.w3.org/2000/svg" xmlns:xlink="http://www.w3.org/1999/xlink">
    <title>insta</title>
    <g id="grp--insta" stroke="none" stroke-width="1" fill="none" fill-rule="evenodd">
        <path d="M624.43,0.28 L208.58,0.28 C93.8041833,0.28 0.76,93.3241833 0.76,208.1 L0.76,623.95 C0.76,738.725817 93.8041833,831.77 208.58,831.77 L624.43,831.77 C739.205817,831.77 832.25,738.725817 832.25,623.95 L832.25,208.1 C832.25,93.3241833 739.205817,0.28 624.43,0.28 Z M208.58,55.28 L624.43,55.28 C708.830155,55.28 777.25,123.699845 777.25,208.1 L777.25,623.95 C777.25,708.350155 708.830155,776.77 624.43,776.77 L208.58,776.77 C124.179845,776.77 55.76,708.350155 55.76,623.95 L55.76,208.1 C55.76,123.699845 124.179845,55.28 208.58,55.28 Z M416.88,216.54 C535.996775,216.54 632.56,313.103225 632.56,432.22 C632.56,551.336775 535.996775,647.9 416.88,647.9 C297.763225,647.9 201.2,551.336775 201.2,432.22 C201.2,313.103225 297.763225,216.54 416.88,216.54 Z M416.88,271.54 C328.138886,271.54 256.2,343.478886 256.2,432.22 C256.2,520.961114 328.138886,592.9 416.88,592.9 C505.621114,592.9 577.56,520.961114 577.56,432.22 C577.56,343.478886 505.621114,271.54 416.88,271.54 Z M647.45,126.28 C675.627568,126.28 698.47,149.122432 698.47,177.3 C698.47,205.477568 675.627568,228.32 647.45,228.32 C619.272432,228.32 596.43,205.477568 596.43,177.3 C596.43,149.122432 619.272432,126.28 647.45,126.28 Z M647.45,173.32 C645.251907,173.32 643.47,175.101907 643.47,177.3 C643.47,179.498093 645.251907,181.28 647.45,181.28 C649.648093,181.28 651.43,179.498093 651.43,177.3 C651.43,175.101907 649.648093,173.32 647.45,173.32 Z" id="insta" fill="#F96F12" fill-rule="nonzero"></path>
    </g>
</svg>