<svg width="833px" height="832px" viewBox="0 0 833 832" version="1.1" xmlns="http://www.w3.org/2000/svg" xmlns:xlink="http://www.w3.org/1999/xlink">
    <title>linkedin</title>
    <g id="grp--linkedin" stroke="none" stroke-width="1" fill="none" fill-rule="evenodd">
        <path d="M624.43,0.28 L208.58,0.28 C93.8041833,0.28 0.76,93.3241833 0.76,208.1 L0.76,623.95 C0.76,738.725817 93.8041833,831.77 208.58,831.77 L624.43,831.77 C739.205817,831.77 832.25,738.725817 832.25,623.95 L832.25,208.1 C832.25,93.3241833 739.205817,0.28 624.43,0.28 Z M208.58,55.28 L624.43,55.28 C708.830155,55.28 777.25,123.699845 777.25,208.1 L777.25,623.95 C777.25,708.350155 708.830155,776.77 624.43,776.77 L208.58,776.77 C124.179845,776.77 55.76,708.350155 55.76,623.95 L55.76,208.1 C55.76,123.699845 124.179845,55.28 208.58,55.28 Z M318.76,588.28 L318.76,322.28 L240.76,322.28 L240.76,588.28 L318.76,588.28 Z M318.76,288.28 L318.76,223.28 L240.76,223.28 L240.76,288.28 L318.76,288.28 Z M611.76,588.28 L611.76,399.464158 C611.76,347.37703 573.662655,314.28 521.414867,314.28 C482.267219,314.28 456.105133,327.844356 440.866195,354.973069 L440.866195,321.333465 L365.76,321.333465 L365.76,588.28 L444.675929,588.28 L444.675929,427.135446 C444.675929,394.038416 460.459115,378.303762 491.462143,378.303762 C519.763027,378.303762 532.280727,389.155248 532.280727,422.794851 L532.280727,588.28 L611.76,588.28 Z" id="linkedin" fill="#F96F12" fill-rule="nonzero"></path>
    </g>
</svg>