<svg width="833px" height="832px" viewBox="0 0 833 832" version="1.1" xmlns="http://www.w3.org/2000/svg" xmlns:xlink="http://www.w3.org/1999/xlink">
    <title>behance</title>
    <g id="grp--behance" stroke="none" stroke-width="1" fill="none" fill-rule="evenodd">
        <path d="M624.43,0.28 L208.58,0.28 C93.8041833,0.28 0.76,93.3241833 0.76,208.1 L0.76,623.95 C0.76,738.725817 93.8041833,831.77 208.58,831.77 L624.43,831.77 C739.205817,831.77 832.25,738.725817 832.25,623.95 L832.25,208.1 C832.25,93.3241833 739.205817,0.28 624.43,0.28 Z M208.58,55.28 L624.43,55.28 C708.830155,55.28 777.25,123.699845 777.25,208.1 L777.25,623.95 C777.25,708.350155 708.830155,776.77 624.43,776.77 L208.58,776.77 C124.179845,776.77 55.76,708.350155 55.76,623.95 L55.76,208.1 C55.76,123.699845 124.179845,55.28 208.58,55.28 Z M319.559222,433 C347.049271,433 362,446.745455 362,471.781818 C362,497.309091 346.530591,514 319.07694,514 L239,514 L239,433 L319.559222,433 Z M313.504237,316 C339.330508,316 352,326.096328 352,347.25054 C352,368.885529 338.84322,379 315.45339,379 L237,379 L237,316.018143 L313.504237,316 Z M313.126591,574 C398.117258,574 435,536.174699 435,478.466867 C435,432.88253 411.175123,409.120482 383.519939,399.906627 C409.236552,389.365288 425.826426,364.132193 425.286781,336.379518 C425.286781,286.430723 395.175802,252 326.697607,252 L165,252 L165,574 L313.126591,574 Z M530,430 C532.444444,399.659574 549.555556,384 574,384 C598.444444,384 616.044444,398.191489 618,430 L530,430 Z M689,472.020984 L689,461.803279 C689,373.249836 649.12685,328 575.701903,328 C501.790698,328 459,375.682623 459,449.639344 C459,536.246557 499.368583,580 580.105748,580 C631.649089,580 671.522239,552.26623 686.109976,503.123934 L613.630021,503.123934 C610.226216,515.811148 594.179704,524.082623 576.63772,524.082623 C549.893534,524.082623 531.415733,502.187541 529.470701,472.020984 L689,472.020984 Z" id="behance" fill="#F96F12" fill-rule="nonzero"></path>
    </g>
</svg>