<svg xmlns="http://www.w3.org/2000/svg" xmlns:xlink="http://www.w3.org/1999/xlink" width="558.418" height="600.133" viewBox="0 0 558.418 600.133">
  <defs>
    <clipPath id="clip-path">
      <ellipse id="Ellipse_117" data-name="Ellipse 117" cx="52.062" cy="54.522" rx="52.062" ry="54.522" fill="none"/>
    </clipPath>
  </defs>
  <g id="illus--clem" transform="translate(-286.154 -230.052)">
    <ellipse id="Ellipse_109" data-name="Ellipse 109" cx="279.209" cy="82.202" rx="279.209" ry="82.202" transform="translate(286.154 665.781)" fill="#ededed" opacity="0.63"/>
    <circle id="Ellipse_110" data-name="Ellipse 110" cx="25.08" cy="25.08" r="25.08" transform="translate(603.581 325.233)" fill="#050811"/>
    <path id="Tracé_420" data-name="Tracé 420" d="M670.879,353.145c21.2.132,21.2,43.187,6.623,62.4s-20.536,113.931-48.024,145.727-63.914,42.345-102.768,27.159c-10.169-3.973-11.471,9.045-38.972,6.84s-71.883-26.712-73.206-38.636-21.138-51.665-24.148-65.577c-18.245-20.534-48.053-96.711-48.053-100.684s71.548-25.386,82.03-27.176,71.623,57.008,95.16,91.667c20.226-28.271,50.984-60.658,73.019-73.173S670.879,353.145,670.879,353.145Z" transform="translate(67.338 147.554)" fill="#02aa99"/>
    <path id="Tracé_421" data-name="Tracé 421" d="M493.839,317.769c-3.9,18.786-63.206,5.91-69.987,1.97S384.7,401.245,384.7,401.245s7.194,35.388,19.782,42.611,52.241,50.63,59.746,60.48,49.216-45.375,63.745-55.225,30.29-85.372,30.29-85.372Z" transform="translate(118.133 105.148)" fill="#fbfcf5"/>
    <path id="Tracé_422" data-name="Tracé 422" d="M436,356.146c3.762,29.828,9.712,54.385,38.456,73.56,15-32.631-10.376-68.578-10.376-68.578L436,356.146" transform="translate(179.624 151.151)" fill="#d3ac4c"/>
    <rect id="Rectangle_133" data-name="Rectangle 133" width="30.038" height="46.92" transform="matrix(0.534, 0.845, -0.845, 0.534, 649.029, 521.437)" fill="#f3cfb2"/>
    <path id="Tracé_423" data-name="Tracé 423" d="M432.134,353.145c2.366,20.569-23.038,54.106-48.22,57.09-5.431-16.444,1.493-51.432,48.22-57.09" transform="translate(115.303 147.554)" fill="#d3ac4c"/>
    <rect id="Rectangle_134" data-name="Rectangle 134" width="30.038" height="46.92" transform="translate(494.87 538.523) rotate(-52.31)" fill="#f3cfb2"/>
    <path id="Tracé_424" data-name="Tracé 424" d="M487.014,250.6c10.642,9.459,4.729,17.161,9.852,33.412s22.862,16.5,22.469,34.707-5.906,31.6-16.158,40.276-8.8,22.86-8.8,22.86l-63.334-19.313L422.4,344.019l1.145-27.787Z" transform="translate(163.316 24.636)" fill="#472918"/>
    <path id="Tracé_425" data-name="Tracé 425" d="M530.384,266.362c8.562-10.2,10.191-24.854-9.879-34.025s-51.109,11.636-59.363,20.809-11.464,18.72-22.928,39.814-17.884,14.672-31.182,42.644-2.293,37.6-14.215,54.11S340.54,413.1,340.083,433.277s4.127,23.386,4.127,23.386l156.826-84.374,9.389-44.94Z" transform="translate(64.607)" fill="#472918"/>
    <ellipse id="Ellipse_111" data-name="Ellipse 111" cx="52.062" cy="54.522" rx="52.062" ry="54.522" transform="translate(541.985 256.901)" fill="#f3cfb2"/>
    <path id="Tracé_426" data-name="Tracé 426" d="M480.264,241.85c-1.376,14.672-60.531,53.651-77.955,52.734s41.27-58.237,41.27-58.237Z" transform="translate(135.361 7.546)" fill="#472918"/>
    <path id="Tracé_427" data-name="Tracé 427" d="M433.956,250.2c1.9,1.361,4.114,2.992,6.552,4.8,16.218,12,38.407,32.462,48.464,31.3,7.139-.825,7.957-16.508,0-27.055s-29.619-26.6-55.016-25.679S433.956,250.2,433.956,250.2Z" transform="translate(163.644 4.164)" fill="#472918"/>
    <path id="Tracé_428" data-name="Tracé 428" d="M457.531,302.488c-5.97,8.995,3.606,20.43,4.017,25.09s2.795,40.588,7.056,57.932-16.906,30.125-24.549,30.125-29.894-12.783-30.366-22.724,0-19.41,0-19.41-11.609-40.929-11.174-52.184c8.074-8.5,15.877-10.4,18.39-27.013l2.513-16.618Z" transform="translate(139.469 57.097)" fill="#f3cfb2"/>
    <path id="Tracé_429" data-name="Tracé 429" d="M427.389,295.344c13.738-.442,21.495-.442,46.312,15.068s93.947,40.094,114.773,68.127,12.852,40,3.988,56.395S490.1,490.77,484.78,502.733c11.521-47.415-23.291-73.56-38.456-73.56,13.2-7.977,15.719-9.415,6.077-23.045C439.332,387.655,427.833,305.537,427.389,295.344Z" transform="translate(169.301 78.124)" fill="#f8c200"/>
    <path id="Tracé_430" data-name="Tracé 430" d="M507.422,295.286c-17.128-1.612-69.629,14.511-90.018,30.408s-97.535,50.531-97.869,93.883c-.057,7.533,32.114,70.341,139.667,60.148,4.076-34.663,34.254-56.072,48.22-57.09l-5.464-7.647s12.293-57.6,13.823-66.773S499.48,320.705,507.422,295.286Z" transform="translate(40.015 78.063)" fill="#f8c200"/>
    <ellipse id="Ellipse_112" data-name="Ellipse 112" cx="9.732" cy="12.23" rx="9.732" ry="12.23" transform="translate(529.328 300.943)" fill="#f3cfb2"/>
    <circle id="Ellipse_113" data-name="Ellipse 113" cx="31.715" cy="31.715" r="31.715" transform="translate(573.094 534.704)" fill="#f3cfb2"/>
    <circle id="Ellipse_114" data-name="Ellipse 114" cx="31.715" cy="31.715" r="31.715" transform="translate(524.175 530.612)" fill="#f3cfb2"/>
    <path id="Tracé_431" data-name="Tracé 431" d="M435.8,440.014c9.872-5.589,24.564-6.893,33.467,4.323s3.23,23.751,4.228,33.486.943,26.655-10.594,31.569-14.43,29.76-22.389,34.623c-16.679,10.189-47.246,2.131-57.943-10.688S434.686,452.222,435.8,440.014Z" transform="translate(114.112 246.66)" fill="#f8c200"/>
    <path id="Tracé_432" data-name="Tracé 432" d="M464.913,414.706c-30.824,10.3-55.267,36.725-56.08,71.746C447.009,473.139,468.025,427.28,464.913,414.706Z" transform="translate(147.058 221.348)" fill="#057a6c"/>
    <path id="Tracé_433" data-name="Tracé 433" d="M445.993,500.3l-68.16-45.118,23.339-52.026,49.348,37.937s7.955,10.9,3.687,27.033S445.993,500.3,445.993,500.3Z" transform="translate(109.897 207.501)" fill="#02aa99"/>
    <path id="Tracé_434" data-name="Tracé 434" d="M460.813,427.555c15.468,10.563,22.719,44.2,22.719,44.2s-50.766-7.942-62.659-34.021L435.2,420.559S447.774,418.65,460.813,427.555Z" transform="translate(161.49 228.158)" fill="#057a6c"/>
    <path id="Tracé_435" data-name="Tracé 435" d="M437.123,422.218c-15.057,8.014-26.4,20.464-26.365,24.247s39.748,35,39.748,35L469.816,458.8Z" transform="translate(149.365 230.353)" fill="#e2c7b5"/>
    <path id="Tracé_436" data-name="Tracé 436" d="M437.531,475.8c-5.978-6.115-8.8-9.2-13.557-13.074s18.737-29.621,23.181-29.647,30.956,21.541,33.148,21.787-7.581,28.018-7.581,28.018l-19.54,10.182Z" transform="translate(164.449 243.369)" fill="#f96f12"/>
    <path id="Tracé_437" data-name="Tracé 437" d="M472.844,448.744c-9.908-.787-31.778,1-22.552,28.955-12.988-2.1-13.3-8.584-18.535-10.462s-.136,33.2,16.671,35.729c6.3.948,2.836-3.1,10.064,4.505,12.047,12.684,25.879,29.553,43.15,33.7,27.631,6.645,47.332-16.624,48.937-30.956.668-5.963-3.221-13.608-8.4-20.551-7.271-9.742-17.091-18.1-20.437-18.473-5.734-.642-41.762-22.416-42.681-22.842s-15.077-10.075-16.53-8.623S472.844,448.744,472.844,448.744Z" transform="translate(172.178 251.165)" fill="#f8c200"/>
    <path id="Tracé_438" data-name="Tracé 438" d="M439.225,471.449c-15.53-10.807-57.441-37.919-71.608-52.136h0s3.248,10.637,6.367,18.23,65.24,33.906,65.24,33.906" transform="translate(90.103 219.296)" fill="#057a6c"/>
    <path id="Tracé_439" data-name="Tracé 439" d="M529.914,384.368c-10.681,38.944-65.447,103.269-67.3,107.1s54.3-57.518,54.3-57.518l13-49.579" transform="translate(211.469 184.981)" fill="#057a6c"/>
    <g id="Groupe_646" data-name="Groupe 646" transform="translate(541.985 256.901)">
      <g id="Groupe_645" data-name="Groupe 645" clip-path="url(#clip-path)">
        <circle id="Ellipse_115" data-name="Ellipse 115" cx="25.08" cy="25.08" r="25.08" transform="translate(0.699 52.199)" fill="#f96f12"/>
        <circle id="Ellipse_116" data-name="Ellipse 116" cx="25.08" cy="25.08" r="25.08" transform="translate(73.64 68.502)" fill="#f96f12"/>
      </g>
    </g>
    <path id="Tracé_440" data-name="Tracé 440" d="M376.928,409c16.616,2.729,30.65,13.434,30.65,30.683S389.7,468,373.949,467.147s-54.064-23.839-55.342-37.46S342.962,403.419,376.928,409Z" transform="translate(38.848 212.888)" fill="#d7d2ca"/>
    <path id="Tracé_441" data-name="Tracé 441" d="M389.88,437.527c8.94,7.256,27.288,23.858,15.771,43.44,10.2,3.832,11.9,10.642,5.939,11.068a75.611,75.611,0,0,0-16.6,3.406c-3.83,1.278-46.826,3.83-60.449-9.791-14.472-.851-20.433-2.555-19.155-6.385s9.784-3.254,9.331-5.866c-2.52-14.569,12.379-39.685,25.575-46.283S389.88,437.527,389.88,437.527Z" transform="translate(34.836 234.401)" fill="#d7d2ca"/>
    <path id="Tracé_442" data-name="Tracé 442" d="M324.5,420.183c2.953-6.891,17.311-9.659,25.822-3.694s-5.391,14.032-9.932,14.254S321.94,426.141,324.5,420.183Z" transform="translate(45.588 219.565)" fill="#050811"/>
    <path id="Tracé_443" data-name="Tracé 443" d="M351.737,418.827c6.282-3.848,13.9,5.108,8.228,11.919s-11.633-1-11.633-5.607S349.279,420.333,351.737,418.827Z" transform="translate(74.533 225.177)" fill="#050811"/>
    <path id="Tracé_444" data-name="Tracé 444" d="M341.221,424.53c6.933,1.88,10.809,3.879,11.3,6.242s-4.51,3.445-11.3,0S336.26,423.184,341.221,424.53Z" transform="translate(60.696 232.812)" fill="#050811"/>
    <circle id="Ellipse_118" data-name="Ellipse 118" cx="22.267" cy="22.267" r="22.267" transform="translate(377.694 691.896)" fill="#f96f12"/>
    <path id="Tracé_445" data-name="Tracé 445" d="M367.689,440.625a24.628,24.628,0,0,1-26.547,9.092A24.633,24.633,0,0,1,372.078,430.5,24.521,24.521,0,0,1,367.689,440.625Z" transform="translate(65.915 239.165)" fill="#02aa99"/>
  </g>
</svg>
